<svg id="Layer_1" data-name="Layer 1" xmlns="http://www.w3.org/2000/svg" viewBox="0 0 120.24 156.48"><defs><style>.cls-1,.cls-5{fill:#2f4a6f;}.cls-1,.cls-2,.cls-8{stroke:#fff;stroke-miterlimit:10;}.cls-1,.cls-2{stroke-width:2px;}.cls-2,.cls-7,.cls-8{fill:none;}.cls-3{fill:#231f20;}.cls-4{fill:#2b88bc;}.cls-6{fill:#fff;}</style></defs><title>OMER</title><rect class="cls-1" x="17.26" y="127.02" width="18.77" height="25.24"/><rect class="cls-2" x="81.09" y="66.6" width="11.67" height="25.49"/><rect class="cls-3" x="92.77" y="92.09" width="25.26" height="4.63"/><rect class="cls-3" x="89.38" y="122.41" width="25.26" height="4.63"/><rect class="cls-3" x="93.48" y="61.97" width="25.26" height="4.63"/><rect class="cls-4" x="80.36" y="16.21" width="13.24" height="41.53"/><rect class="cls-5" y="61.18" width="120.24" height="95.3"/><line class="cls-3" x1="68.61" y1="63.22" x2="68.61" y2="62.55"/><path class="cls-6" d="M177.3,147.54h-5V122h5Z" transform="translate(-83.27 -55.38)"/><path class="cls-6" d="M181.67,122h5.89l9.51,19.58-.42.46V122h4.6v25.54h-5.92l-9.47-19.28.42-.46v19.74h-4.61Z" transform="translate(-83.27 -55.38)"/><rect class="cls-7" x="80.36" y="96.87" width="38.09" height="32.75"/><path class="cls-6" d="M169.72,152.1h6.35v25.56h-4.38V157.81l.18,1.13L167,174.81h-4.25l-4.89-15.52.17-1.48v19.85h-4.37V152.1H160l4.87,17.23Z" transform="translate(-83.27 -55.38)"/><path class="cls-6" d="M193.74,167.8v9.86h-4.81V167.8l-7.53-15.7h5l4.89,11,4.88-11h5.05Z" transform="translate(-83.27 -55.38)"/><path class="cls-6" d="M100.56,182.4h4.82V208h-4.82ZM102.79,193h14.89v4.64H102.79Zm11.76-10.56h4.82V208h-4.82Z" transform="translate(-83.27 -55.38)"/><path class="cls-6" d="M131.6,207.05a8.12,8.12,0,0,1-3.27-3.3,10.17,10.17,0,0,1-1.16-4.95v-7.24a10.11,10.11,0,0,1,1.16-4.95,8.08,8.08,0,0,1,3.27-3.31,10.85,10.85,0,0,1,9.8,0,8.08,8.08,0,0,1,3.27,3.31,10.11,10.11,0,0,1,1.16,4.95v7.24a10.17,10.17,0,0,1-1.16,4.95,8.12,8.12,0,0,1-3.27,3.3,10.85,10.85,0,0,1-9.8,0Zm7.19-4.2a3.83,3.83,0,0,0,1.52-1.57,5.1,5.1,0,0,0,.53-2.36v-7.49a5.06,5.06,0,0,0-.53-2.35,3.86,3.86,0,0,0-1.52-1.58,5,5,0,0,0-4.58,0,3.86,3.86,0,0,0-1.52,1.58,5.06,5.06,0,0,0-.53,2.35v7.49a5.1,5.1,0,0,0,.53,2.36,3.83,3.83,0,0,0,1.52,1.57,5,5,0,0,0,4.58,0Z" transform="translate(-83.27 -55.38)"/><path class="cls-6" d="M169.36,182.4h6.35V208h-4.38V188.11l.18,1.13-4.89,15.87h-4.25l-4.89-15.52.18-1.48V208h-4.38V182.4h6.35l4.87,17.23Z" transform="translate(-83.27 -55.38)"/><path class="cls-6" d="M184,182.4h4.82V208H184Zm1.74,0h15.39V187H185.77Zm0,10.55h13.45v4.64H185.77Zm0,10.37h15.39V208H185.77Z" transform="translate(-83.27 -55.38)"/><polyline class="cls-5" points="1.15 59.32 58.47 0 119.78 59.32"/><line class="cls-8" x1="19.56" y1="139.64" x2="33.61" y2="139.64"/><polyline class="cls-4" points="80.34 15.28 86.75 6.64 93.62 15.28"/></svg>